<svg id="svg" version="1.1" xmlns="http://www.w3.org/2000/svg" xmlns:xlink="http://www.w3.org/1999/xlink" width="400" height="400" viewBox="0, 0, 400,400"><g id="svgg"><path id="path0" d="M184.200 0.247 C 179.137 0.503,168.216 1.647,167.400 2.007 C 166.960 2.201,164.890 2.562,162.800 2.810 C 158.539 3.314,156.000 3.882,156.000 4.332 C 156.000 4.497,154.020 4.962,151.600 5.364 C 149.180 5.767,147.200 6.248,147.200 6.434 C 147.200 6.620,146.300 6.892,145.200 7.038 C 144.100 7.184,143.200 7.472,143.200 7.678 C 143.200 7.885,142.855 7.944,142.434 7.811 C 142.012 7.677,141.552 7.755,141.410 7.984 C 141.269 8.213,140.713 8.400,140.176 8.400 C 139.639 8.400,139.200 8.553,139.200 8.740 C 139.200 8.927,137.805 9.403,136.100 9.797 C 134.395 10.192,132.460 10.796,131.800 11.139 C 131.140 11.483,130.465 11.727,130.300 11.682 C 130.135 11.637,130.000 11.746,130.000 11.924 C 130.000 12.103,129.060 12.490,127.912 12.784 C 126.763 13.078,125.605 13.537,125.339 13.804 C 125.072 14.071,124.119 14.407,123.221 14.550 C 122.323 14.694,121.276 15.124,120.893 15.507 C 120.510 15.890,119.163 16.555,117.898 16.984 C 116.634 17.414,115.600 17.869,115.600 17.996 C 115.600 18.122,114.762 18.473,113.737 18.775 C 112.713 19.078,111.548 19.652,111.149 20.051 C 110.751 20.449,109.519 21.072,108.412 21.434 C 107.305 21.796,106.400 22.251,106.400 22.446 C 106.400 22.641,106.139 22.800,105.820 22.800 C 105.501 22.800,105.063 23.115,104.848 23.500 C 104.633 23.885,104.357 24.163,104.235 24.119 C 103.803 23.960,101.600 24.883,101.600 25.223 C 101.600 25.413,100.868 25.787,99.973 26.055 C 99.078 26.324,98.041 26.930,97.668 27.404 C 97.296 27.878,96.532 28.381,95.971 28.521 C 95.410 28.662,94.422 29.232,93.775 29.788 C 93.129 30.344,92.407 30.799,92.172 30.800 C 91.937 30.800,91.353 31.250,90.875 31.800 C 90.397 32.350,89.812 32.800,89.575 32.800 C 89.338 32.800,88.392 33.310,87.472 33.933 C 86.552 34.556,85.485 35.180,85.100 35.320 C 84.715 35.460,84.400 35.851,84.400 36.187 C 84.400 36.524,84.157 36.800,83.860 36.800 C 83.563 36.800,82.575 37.340,81.663 38.000 C 80.752 38.660,79.896 39.200,79.760 39.200 C 79.297 39.200,77.614 40.998,77.607 41.500 C 77.603 41.775,77.465 41.971,77.300 41.936 C 76.623 41.793,75.309 42.629,73.788 44.168 C 72.902 45.066,71.669 46.029,71.048 46.310 C 70.428 46.590,69.835 47.144,69.732 47.540 C 69.628 47.937,69.016 48.573,68.371 48.953 C 67.727 49.334,67.200 49.815,67.200 50.023 C 67.200 50.230,66.975 50.402,66.700 50.405 C 65.903 50.413,61.176 55.234,61.467 55.743 C 61.611 55.994,61.601 56.086,61.444 55.947 C 61.186 55.717,58.511 57.843,57.440 59.129 C 56.877 59.805,55.806 60.876,55.129 61.441 C 54.838 61.683,53.430 63.209,52.000 64.833 C 50.570 66.457,48.844 68.328,48.164 68.992 C 47.484 69.657,46.815 70.515,46.676 70.900 C 46.538 71.285,46.268 71.600,46.076 71.600 C 45.883 71.600,45.387 72.230,44.972 73.000 C 44.557 73.770,43.994 74.400,43.719 74.400 C 43.445 74.400,42.927 74.968,42.568 75.662 C 42.209 76.357,41.556 77.302,41.116 77.762 C 39.770 79.175,33.580 88.000,33.159 89.108 C 32.941 89.682,32.411 90.397,31.981 90.698 C 31.552 90.999,31.195 91.460,31.189 91.723 C 31.183 91.985,30.643 92.907,29.989 93.771 C 29.335 94.635,28.800 95.650,28.800 96.025 C 28.800 96.401,28.384 96.981,27.875 97.314 C 27.367 97.647,26.730 98.658,26.459 99.560 C 26.189 100.462,25.809 101.200,25.615 101.200 C 25.421 101.200,25.042 101.866,24.774 102.679 C 24.505 103.493,23.866 104.610,23.354 105.163 C 22.841 105.716,22.122 107.121,21.756 108.284 C 21.390 109.448,20.956 110.400,20.791 110.400 C 20.626 110.400,20.220 110.985,19.888 111.700 C 18.944 113.734,17.776 116.468,17.197 118.000 C 16.906 118.770,16.463 119.670,16.211 120.000 C 15.523 120.905,14.800 122.743,14.800 123.590 C 14.800 124.004,14.552 124.591,14.249 124.894 C 13.798 125.345,13.429 126.384,13.003 128.400 C 12.791 129.406,12.189 130.671,11.767 130.998 C 11.482 131.219,10.959 132.570,10.604 134.000 C 10.249 135.430,9.714 137.140,9.414 137.800 C 9.114 138.460,8.743 139.855,8.589 140.900 C 8.435 141.945,8.146 142.800,7.947 142.800 C 7.748 142.800,7.693 143.230,7.825 143.756 C 7.957 144.282,7.870 144.833,7.632 144.980 C 7.395 145.127,7.200 145.597,7.200 146.024 C 7.200 146.451,7.045 146.800,6.855 146.800 C 6.666 146.800,6.185 148.698,5.787 151.018 C 5.390 153.338,4.915 155.329,4.732 155.442 C 4.550 155.555,4.400 156.076,4.400 156.600 C 4.400 157.124,4.247 157.647,4.060 157.763 C 3.873 157.879,3.490 159.908,3.210 162.272 C 2.930 164.636,2.551 166.847,2.369 167.185 C 1.936 167.987,0.800 179.791,0.800 183.486 C 0.800 185.063,0.620 186.464,0.400 186.600 C -0.146 186.937,-0.146 212.663,0.400 213.000 C 0.620 213.136,0.800 214.624,0.800 216.306 C 0.800 219.602,1.907 231.414,2.308 232.400 C 2.442 232.730,2.862 234.890,3.242 237.200 C 4.045 242.092,4.416 243.723,4.787 244.000 C 4.935 244.110,5.383 246.135,5.783 248.500 C 6.183 250.865,6.666 252.800,6.855 252.800 C 7.045 252.800,7.200 253.149,7.200 253.576 C 7.200 254.003,7.389 254.469,7.619 254.612 C 7.850 254.754,8.002 255.170,7.958 255.535 C 7.913 255.901,7.984 256.470,8.115 256.800 C 8.246 257.130,8.555 258.432,8.803 259.693 C 9.051 260.954,9.404 262.079,9.586 262.192 C 9.769 262.305,10.222 263.759,10.592 265.424 C 10.963 267.088,11.497 268.539,11.780 268.648 C 12.062 268.756,12.620 270.050,13.018 271.522 C 13.417 272.995,13.956 274.413,14.216 274.673 C 14.476 274.933,14.807 275.881,14.950 276.779 C 15.094 277.677,15.524 278.724,15.907 279.107 C 16.290 279.490,16.955 280.837,17.384 282.102 C 17.814 283.366,18.269 284.400,18.396 284.400 C 18.522 284.400,18.859 285.192,19.145 286.159 C 19.430 287.126,19.984 288.261,20.375 288.681 C 20.766 289.101,21.431 290.370,21.854 291.502 C 22.276 292.634,23.000 293.996,23.462 294.528 C 23.925 295.060,24.519 296.148,24.783 296.947 C 25.046 297.746,25.421 298.400,25.615 298.400 C 25.809 298.400,26.189 299.138,26.459 300.040 C 26.730 300.942,27.346 301.939,27.828 302.255 C 28.311 302.572,28.804 303.320,28.924 303.919 C 29.044 304.518,29.604 305.546,30.170 306.204 C 30.736 306.862,31.199 307.615,31.200 307.877 C 31.200 308.140,31.515 308.590,31.900 308.877 C 32.285 309.165,32.958 310.120,33.396 311.000 C 33.834 311.880,34.294 312.690,34.418 312.800 C 34.542 312.910,36.145 315.115,37.980 317.700 C 39.814 320.285,41.447 322.400,41.609 322.400 C 41.771 322.400,42.124 322.934,42.394 323.587 C 42.665 324.239,43.227 324.882,43.643 325.014 C 44.059 325.146,44.400 325.430,44.400 325.645 C 44.400 325.860,44.805 326.442,45.300 326.937 C 45.795 327.433,46.429 328.342,46.710 328.959 C 46.990 329.576,47.536 330.163,47.923 330.264 C 48.310 330.365,49.106 331.207,49.693 332.135 C 50.280 333.062,51.174 334.186,51.680 334.631 C 52.186 335.076,53.143 336.062,53.806 336.820 C 54.469 337.579,55.504 338.519,56.106 338.909 C 56.708 339.299,57.200 339.780,57.200 339.978 C 57.200 340.447,59.553 342.800,60.022 342.800 C 60.220 342.800,60.697 343.295,61.082 343.900 C 61.467 344.505,61.895 345.090,62.035 345.200 C 63.375 346.259,68.090 350.518,69.230 351.700 C 70.026 352.525,70.858 353.200,71.079 353.200 C 71.300 353.200,72.046 353.740,72.737 354.400 C 73.428 355.060,74.162 355.600,74.369 355.600 C 74.577 355.600,74.860 355.960,75.000 356.400 C 75.140 356.840,75.472 357.200,75.738 357.200 C 76.004 357.200,76.812 357.739,77.533 358.398 C 79.519 360.212,86.630 365.273,88.737 366.372 C 89.762 366.906,90.835 367.671,91.123 368.072 C 91.410 368.472,91.860 368.800,92.123 368.800 C 92.385 368.801,93.138 369.264,93.796 369.830 C 94.454 370.396,95.482 370.956,96.081 371.076 C 96.680 371.196,97.428 371.689,97.745 372.172 C 98.061 372.654,99.058 373.270,99.960 373.541 C 100.862 373.811,101.600 374.191,101.600 374.385 C 101.600 374.579,102.266 374.958,103.079 375.226 C 103.893 375.495,105.009 376.132,105.560 376.643 C 106.111 377.154,107.046 377.678,107.638 377.808 C 108.229 377.938,109.553 378.577,110.578 379.227 C 111.604 379.877,113.153 380.631,114.021 380.902 C 114.890 381.173,115.600 381.501,115.600 381.630 C 115.600 381.760,116.680 382.211,118.000 382.633 C 119.320 383.055,120.400 383.532,120.400 383.695 C 120.400 384.081,123.092 385.200,124.020 385.200 C 124.418 385.200,124.981 385.438,125.271 385.729 C 125.562 386.019,127.005 386.583,128.478 386.982 C 129.950 387.380,131.243 387.935,131.350 388.215 C 131.458 388.495,132.789 389.006,134.308 389.352 C 135.827 389.697,137.573 390.241,138.187 390.560 C 138.802 390.878,140.181 391.260,141.252 391.407 C 142.323 391.554,143.300 391.838,143.423 392.037 C 143.546 392.237,144.042 392.401,144.524 392.402 C 145.006 392.404,145.877 392.654,146.461 392.958 C 147.044 393.263,149.294 393.824,151.461 394.206 C 153.627 394.587,155.571 395.057,155.780 395.250 C 155.989 395.442,156.563 395.600,157.056 395.600 C 157.549 395.600,158.047 395.753,158.163 395.940 C 158.279 396.127,160.308 396.510,162.672 396.790 C 165.036 397.070,167.247 397.447,167.585 397.627 C 168.286 398.001,179.672 399.200,182.517 399.200 C 183.553 399.200,184.400 399.380,184.400 399.600 C 184.400 400.134,219.080 400.152,219.267 399.618 C 219.340 399.407,222.280 398.947,225.800 398.595 C 229.320 398.243,232.477 397.807,232.815 397.627 C 233.153 397.447,235.364 397.070,237.728 396.790 C 240.092 396.510,242.121 396.127,242.237 395.940 C 242.353 395.753,242.851 395.600,243.344 395.600 C 243.837 395.600,244.411 395.442,244.620 395.250 C 244.829 395.057,246.773 394.587,248.939 394.206 C 251.106 393.824,253.356 393.263,253.939 392.958 C 254.523 392.654,255.495 392.404,256.100 392.402 C 256.705 392.401,257.200 392.240,257.200 392.045 C 257.200 391.850,258.055 391.565,259.100 391.411 C 260.145 391.257,261.540 390.886,262.200 390.586 C 262.860 390.286,264.570 389.751,266.000 389.396 C 267.430 389.041,268.785 388.512,269.011 388.221 C 269.236 387.930,270.586 387.366,272.011 386.968 C 273.435 386.570,274.838 386.010,275.129 385.723 C 275.419 385.435,275.996 385.200,276.410 385.200 C 277.257 385.200,279.095 384.477,280.000 383.789 C 280.330 383.537,281.230 383.094,282.000 382.803 C 282.770 382.513,284.350 381.853,285.512 381.338 C 286.673 380.822,287.718 380.400,287.833 380.400 C 287.948 380.400,288.708 379.946,289.521 379.391 C 290.335 378.837,291.630 378.210,292.400 378.000 C 293.170 377.790,294.259 377.189,294.821 376.666 C 295.382 376.142,296.507 375.495,297.321 375.226 C 298.134 374.958,298.800 374.579,298.800 374.385 C 298.800 374.191,299.538 373.811,300.440 373.541 C 301.342 373.270,302.339 372.654,302.655 372.172 C 302.972 371.689,303.720 371.196,304.319 371.076 C 304.918 370.956,305.946 370.396,306.604 369.830 C 307.262 369.264,308.015 368.801,308.277 368.800 C 308.540 368.800,308.990 368.467,309.277 368.060 C 309.565 367.654,310.610 366.936,311.600 366.465 C 313.352 365.632,319.680 361.130,321.983 359.078 C 322.613 358.517,323.685 357.770,324.364 357.418 C 325.044 357.067,325.600 356.555,325.600 356.281 C 325.600 356.006,326.230 355.443,327.000 355.028 C 327.770 354.613,328.400 354.117,328.400 353.924 C 328.400 353.732,328.715 353.462,329.100 353.324 C 329.485 353.185,330.344 352.516,331.010 351.836 C 331.675 351.156,333.552 349.430,335.181 348.000 C 336.810 346.570,338.336 345.162,338.571 344.871 C 339.186 344.113,340.113 343.188,341.760 341.690 C 342.552 340.969,343.200 340.225,343.200 340.036 C 343.200 339.847,343.634 339.408,344.163 339.061 C 345.487 338.194,349.144 334.289,350.600 332.189 C 351.260 331.236,352.111 330.373,352.490 330.269 C 352.870 330.165,353.407 329.583,353.684 328.975 C 353.961 328.367,355.046 327.003,356.094 325.943 C 357.142 324.884,358.000 323.842,358.000 323.628 C 358.000 323.414,358.630 322.627,359.400 321.879 C 360.170 321.131,360.800 320.420,360.800 320.300 C 360.800 319.849,363.696 315.788,364.237 315.480 C 364.547 315.304,364.800 314.933,364.800 314.656 C 364.800 314.378,365.124 313.802,365.521 313.375 C 365.917 312.949,366.592 311.840,367.021 310.910 C 367.449 309.981,368.007 309.216,368.261 309.210 C 368.514 309.205,368.898 308.705,369.114 308.100 C 369.329 307.495,369.892 306.562,370.364 306.026 C 370.836 305.491,371.337 304.593,371.478 304.031 C 371.619 303.469,372.122 302.704,372.596 302.332 C 373.070 301.959,373.676 300.922,373.945 300.027 C 374.213 299.132,374.587 298.400,374.777 298.400 C 374.967 298.400,375.311 297.905,375.542 297.300 C 376.010 296.073,377.253 293.912,377.673 293.593 C 377.823 293.479,378.239 292.523,378.597 291.469 C 378.955 290.415,379.554 289.246,379.928 288.872 C 380.303 288.497,380.869 287.383,381.188 286.396 C 381.506 285.408,381.904 284.502,382.073 284.383 C 382.242 284.263,382.438 283.813,382.509 283.383 C 382.581 282.952,382.855 282.207,383.120 281.726 C 383.384 281.246,383.600 280.661,383.600 280.426 C 383.600 280.192,383.957 279.643,384.394 279.206 C 384.831 278.769,385.306 277.677,385.450 276.779 C 385.593 275.881,385.921 274.933,386.178 274.673 C 386.436 274.413,386.892 273.300,387.193 272.200 C 387.494 271.100,387.844 270.110,387.970 270.000 C 388.585 269.465,389.272 267.739,389.831 265.327 C 390.171 263.864,390.721 262.140,391.053 261.497 C 391.386 260.854,391.566 260.087,391.453 259.793 C 391.340 259.499,391.492 259.055,391.791 258.807 C 392.090 258.559,392.546 257.106,392.804 255.578 C 393.061 254.050,393.414 252.800,393.588 252.800 C 393.762 252.800,394.233 250.820,394.636 248.400 C 395.038 245.980,395.503 244.000,395.668 244.000 C 396.118 244.000,396.686 241.461,397.190 237.200 C 397.438 235.110,397.799 233.040,397.993 232.600 C 400.423 227.091,400.437 171.638,398.009 167.152 C 397.816 166.796,397.533 165.225,397.378 163.660 C 397.224 162.096,396.986 160.883,396.849 160.965 C 396.712 161.048,396.575 160.045,396.543 158.737 C 396.509 157.274,396.258 156.097,395.891 155.679 C 395.564 155.306,394.977 153.155,394.587 150.900 C 394.197 148.645,393.742 146.800,393.575 146.800 C 393.409 146.800,393.061 145.550,392.804 144.022 C 392.546 142.494,392.090 141.041,391.791 140.793 C 391.492 140.545,391.340 140.101,391.453 139.807 C 391.566 139.513,391.399 138.761,391.083 138.136 C 390.766 137.511,390.282 136.010,390.006 134.800 C 389.515 132.647,388.489 129.997,387.991 129.600 C 387.853 129.490,387.494 128.500,387.193 127.400 C 386.892 126.300,386.411 125.162,386.123 124.871 C 385.835 124.581,385.600 124.004,385.600 123.590 C 385.600 122.743,384.877 120.905,384.189 120.000 C 383.937 119.670,383.494 118.770,383.203 118.000 C 382.912 117.230,382.361 115.880,381.978 115.000 C 381.596 114.120,381.003 112.725,380.662 111.900 C 380.320 111.075,379.876 110.400,379.675 110.400 C 379.474 110.400,378.998 109.410,378.618 108.200 C 378.237 106.990,377.796 106.000,377.637 106.000 C 377.479 106.000,377.102 105.370,376.800 104.600 C 376.498 103.830,376.104 103.200,375.925 103.200 C 375.746 103.200,375.600 102.958,375.600 102.661 C 375.600 102.365,375.251 101.720,374.825 101.228 C 374.398 100.737,373.934 99.811,373.794 99.172 C 373.653 98.533,373.102 97.667,372.569 97.247 C 372.036 96.828,371.600 96.228,371.600 95.914 C 371.600 95.600,371.065 94.635,370.411 93.771 C 369.757 92.907,369.217 91.868,369.211 91.463 C 369.205 91.057,368.851 90.634,368.425 90.522 C 367.999 90.411,367.469 89.798,367.246 89.161 C 367.024 88.524,366.383 87.400,365.821 86.663 C 365.260 85.927,364.800 85.127,364.800 84.885 C 364.800 84.643,364.485 84.210,364.100 83.922 C 363.414 83.409,360.800 79.792,360.800 79.355 C 360.800 79.233,360.170 78.521,359.400 77.774 C 358.630 77.026,358.000 76.234,358.000 76.014 C 358.000 75.794,357.415 74.992,356.700 74.231 C 354.254 71.628,353.742 70.999,353.469 70.262 C 353.319 69.856,352.859 69.436,352.447 69.328 C 352.035 69.220,351.497 68.692,351.252 68.155 C 351.007 67.617,350.535 67.073,350.203 66.946 C 349.872 66.819,349.600 66.493,349.600 66.223 C 349.600 65.953,349.105 65.282,348.500 64.731 C 347.895 64.181,346.838 63.116,346.152 62.365 C 345.465 61.614,344.565 60.698,344.152 60.329 C 343.738 59.961,342.728 58.971,341.907 58.129 C 341.086 57.288,340.186 56.385,339.907 56.123 C 339.628 55.861,338.230 54.467,336.800 53.024 C 335.370 51.582,333.994 50.402,333.743 50.401 C 333.491 50.401,333.181 50.128,333.054 49.797 C 332.927 49.465,332.367 48.986,331.811 48.732 C 331.255 48.479,330.800 48.033,330.800 47.741 C 330.800 47.449,330.125 46.779,329.300 46.253 C 328.475 45.726,327.027 44.554,326.083 43.648 C 325.139 42.741,324.191 42.000,323.976 42.000 C 323.761 42.000,322.974 41.370,322.226 40.600 C 321.479 39.830,320.767 39.200,320.645 39.200 C 320.208 39.200,316.591 36.586,316.078 35.900 C 315.790 35.515,315.357 35.200,315.115 35.200 C 314.873 35.200,314.073 34.740,313.337 34.179 C 312.600 33.617,311.476 32.976,310.839 32.754 C 310.202 32.531,309.589 32.001,309.478 31.575 C 309.366 31.149,308.943 30.795,308.537 30.789 C 308.132 30.783,307.093 30.243,306.229 29.589 C 305.365 28.935,304.400 28.400,304.086 28.400 C 303.772 28.400,303.172 27.964,302.753 27.431 C 302.333 26.898,301.467 26.347,300.828 26.206 C 300.189 26.066,299.263 25.602,298.772 25.175 C 298.280 24.749,297.635 24.400,297.339 24.400 C 297.042 24.400,296.800 24.201,296.800 23.957 C 296.800 23.714,296.545 23.612,296.233 23.732 C 295.921 23.852,295.567 23.691,295.446 23.375 C 295.324 23.059,294.949 22.800,294.613 22.800 C 294.276 22.800,294.000 22.637,294.000 22.437 C 294.000 22.238,293.010 21.763,291.800 21.382 C 290.590 21.002,289.600 20.526,289.600 20.325 C 289.600 20.124,288.925 19.680,288.100 19.338 C 287.275 18.997,285.880 18.404,285.000 18.022 C 284.120 17.639,282.770 17.088,282.000 16.797 C 281.230 16.506,280.330 16.063,280.000 15.811 C 279.095 15.123,277.257 14.400,276.410 14.400 C 275.996 14.400,275.414 14.157,275.117 13.860 C 274.819 13.562,273.637 13.078,272.488 12.784 C 271.340 12.490,270.400 12.108,270.400 11.937 C 270.400 11.765,270.153 11.720,269.852 11.836 C 269.550 11.951,269.203 11.786,269.081 11.467 C 268.949 11.122,267.315 10.517,265.030 9.966 C 262.923 9.458,261.200 8.898,261.200 8.721 C 261.200 8.545,260.761 8.400,260.224 8.400 C 259.687 8.400,259.131 8.213,258.990 7.984 C 258.848 7.755,258.388 7.677,257.966 7.811 C 257.545 7.944,257.200 7.885,257.200 7.678 C 257.200 7.472,256.300 7.184,255.200 7.038 C 254.100 6.892,253.200 6.626,253.200 6.447 C 253.200 6.269,251.355 5.799,249.100 5.403 C 246.845 5.008,244.622 4.437,244.160 4.135 C 243.697 3.833,241.177 3.308,238.560 2.967 C 235.942 2.627,233.440 2.193,233.000 2.004 C 230.041 0.729,197.691 -0.436,184.200 0.247 M210.200 21.389 C 218.528 21.639,230.538 22.724,230.733 23.244 C 230.807 23.440,231.471 23.600,232.210 23.600 C 232.948 23.600,233.649 23.756,233.767 23.947 C 233.886 24.138,235.696 24.522,237.791 24.799 C 239.886 25.076,241.600 25.460,241.600 25.651 C 241.600 25.843,242.028 26.000,242.551 26.000 C 244.073 26.000,249.343 27.286,249.835 27.778 C 250.081 28.024,251.705 28.559,253.442 28.966 C 255.179 29.373,256.690 29.830,256.800 29.981 C 256.910 30.132,258.250 30.560,259.779 30.931 C 261.307 31.303,262.669 31.787,262.805 32.008 C 262.941 32.228,264.121 32.776,265.426 33.226 C 266.732 33.675,268.563 34.393,269.496 34.822 C 270.428 35.250,271.463 35.600,271.796 35.600 C 272.128 35.600,272.400 35.745,272.400 35.923 C 272.400 36.255,273.962 36.984,277.300 38.211 C 278.345 38.595,279.200 39.064,279.200 39.254 C 279.200 39.444,279.545 39.600,279.967 39.600 C 280.388 39.600,280.793 39.742,280.867 39.916 C 280.940 40.089,282.440 40.933,284.200 41.791 C 285.960 42.649,287.701 43.602,288.068 43.909 C 288.912 44.613,290.883 45.740,293.200 46.842 C 294.190 47.314,295.138 47.935,295.306 48.224 C 295.474 48.513,296.419 49.153,297.406 49.646 C 298.393 50.139,299.200 50.690,299.200 50.871 C 299.200 51.052,299.430 51.200,299.711 51.200 C 299.992 51.200,300.824 51.750,301.560 52.423 C 302.297 53.095,303.585 53.942,304.423 54.306 C 305.261 54.669,306.135 55.379,306.365 55.883 C 306.595 56.387,307.081 56.800,307.446 56.800 C 307.810 56.800,308.530 57.205,309.044 57.700 C 310.296 58.903,310.999 59.477,313.814 61.593 C 315.126 62.580,316.751 63.952,317.425 64.643 C 318.099 65.334,319.044 66.024,319.525 66.176 C 320.006 66.329,320.400 66.593,320.400 66.763 C 320.400 67.024,321.378 68.079,324.392 71.068 C 325.004 71.675,328.325 74.996,328.932 75.608 C 331.859 78.559,332.969 79.600,333.190 79.600 C 333.334 79.600,333.752 80.230,334.119 81.000 C 334.487 81.770,335.071 82.400,335.417 82.400 C 335.764 82.400,335.936 82.580,335.800 82.800 C 335.664 83.020,335.709 83.200,335.899 83.200 C 336.090 83.200,337.135 84.414,338.223 85.897 C 340.397 88.863,340.963 89.565,342.300 90.956 C 342.795 91.470,343.200 92.190,343.200 92.554 C 343.200 92.919,343.613 93.405,344.117 93.635 C 344.621 93.865,345.331 94.739,345.694 95.577 C 346.058 96.415,346.905 97.703,347.577 98.440 C 348.250 99.176,348.800 100.008,348.800 100.289 C 348.800 100.570,348.948 100.800,349.129 100.800 C 349.310 100.800,349.861 101.607,350.354 102.594 C 350.847 103.581,351.487 104.526,351.776 104.694 C 352.065 104.862,352.686 105.810,353.158 106.800 C 354.260 109.117,355.387 111.088,356.091 111.932 C 356.398 112.299,357.351 114.040,358.209 115.800 C 359.067 117.560,359.911 119.060,360.084 119.133 C 360.258 119.207,360.400 119.612,360.400 120.033 C 360.400 120.455,360.556 120.800,360.746 120.800 C 360.936 120.800,361.405 121.655,361.787 122.700 C 362.965 125.915,363.382 126.800,363.721 126.800 C 363.901 126.800,363.936 126.980,363.800 127.200 C 363.664 127.420,363.743 127.600,363.976 127.600 C 364.209 127.600,364.400 127.872,364.400 128.204 C 364.400 128.537,364.750 129.572,365.178 130.504 C 365.607 131.437,366.325 133.268,366.774 134.574 C 367.224 135.879,367.772 137.059,367.992 137.195 C 368.213 137.331,368.697 138.693,369.069 140.221 C 369.440 141.750,369.868 143.090,370.019 143.200 C 370.170 143.310,370.627 144.821,371.034 146.558 C 371.441 148.295,371.971 149.915,372.213 150.158 C 372.661 150.609,373.556 154.194,373.896 156.900 C 373.999 157.725,374.231 158.400,374.410 158.400 C 374.590 158.400,374.862 159.570,375.015 161.000 C 375.168 162.430,375.475 163.600,375.697 163.600 C 375.930 163.600,376.000 164.098,375.863 164.784 C 375.733 165.436,375.800 166.077,376.013 166.208 C 376.226 166.340,376.400 167.052,376.400 167.790 C 376.400 168.529,376.562 169.193,376.759 169.267 C 377.280 169.460,378.397 182.075,378.736 191.600 C 379.186 204.248,377.879 229.925,376.764 230.333 C 376.564 230.407,376.400 231.071,376.400 231.810 C 376.400 232.548,376.209 233.271,375.977 233.414 C 375.734 233.565,375.662 234.172,375.808 234.838 C 375.950 235.485,375.895 236.000,375.683 236.000 C 375.474 236.000,375.176 237.123,375.021 238.495 C 374.866 239.868,374.613 241.083,374.460 241.195 C 374.307 241.308,373.844 243.105,373.431 245.188 C 373.018 247.272,372.422 249.235,372.106 249.552 C 371.789 249.868,371.610 250.542,371.708 251.051 C 371.805 251.560,371.758 251.897,371.603 251.802 C 371.448 251.706,371.092 252.656,370.812 253.914 C 370.533 255.171,370.175 256.290,370.018 256.400 C 369.860 256.510,369.425 257.835,369.050 259.344 C 368.675 260.853,368.128 262.329,367.834 262.623 C 367.540 262.917,366.973 264.248,366.574 265.579 C 366.175 266.911,365.703 268.000,365.524 268.000 C 365.346 268.000,365.200 268.248,365.200 268.551 C 365.200 268.854,364.946 269.709,364.636 270.451 C 364.326 271.193,364.101 271.890,364.135 272.000 C 364.169 272.110,363.818 272.740,363.355 273.400 C 362.892 274.060,362.203 275.545,361.824 276.700 C 361.446 277.855,360.970 278.800,360.768 278.800 C 360.566 278.800,360.400 279.160,360.400 279.600 C 360.400 280.040,360.234 280.400,360.031 280.400 C 359.828 280.400,359.454 281.030,359.200 281.800 C 358.946 282.570,358.572 283.200,358.369 283.200 C 358.166 283.200,358.000 283.487,358.000 283.838 C 358.000 284.463,356.848 286.804,356.346 287.200 C 356.019 287.458,354.535 290.053,353.258 292.600 C 352.706 293.700,352.029 294.738,351.753 294.906 C 351.476 295.074,350.847 296.019,350.354 297.006 C 349.861 297.993,349.339 298.800,349.193 298.800 C 348.888 298.800,347.830 300.862,347.922 301.276 C 347.956 301.427,347.642 301.660,347.225 301.792 C 346.807 301.925,346.137 302.827,345.736 303.796 C 345.335 304.766,344.600 305.745,344.104 305.971 C 343.607 306.198,343.200 306.658,343.200 306.995 C 343.200 307.332,342.840 307.916,342.400 308.293 C 341.960 308.670,341.600 309.156,341.600 309.375 C 341.600 309.593,341.243 310.138,340.806 310.586 C 340.369 311.034,339.334 312.231,338.506 313.248 C 337.678 314.264,336.700 315.464,336.333 315.914 C 335.966 316.364,335.771 316.838,335.900 316.966 C 336.028 317.095,335.840 317.200,335.481 317.200 C 335.122 317.200,334.616 317.605,334.358 318.100 C 334.099 318.595,332.878 320.019,331.644 321.264 C 330.410 322.510,329.220 323.716,329.000 323.946 C 328.780 324.175,327.790 325.167,326.800 326.150 C 325.810 327.133,324.761 328.176,324.468 328.468 C 324.176 328.761,323.141 329.766,322.168 330.702 C 321.196 331.639,320.400 332.571,320.400 332.775 C 320.400 332.979,320.010 333.270,319.533 333.421 C 319.056 333.573,317.787 334.575,316.714 335.648 C 315.640 336.722,314.668 337.600,314.554 337.600 C 314.172 337.600,310.693 340.315,309.044 341.900 C 308.530 342.395,307.810 342.800,307.446 342.800 C 307.081 342.800,306.592 343.219,306.358 343.732 C 306.119 344.258,305.165 344.980,304.167 345.392 C 303.195 345.793,302.400 346.278,302.400 346.470 C 302.400 346.662,301.950 346.991,301.400 347.200 C 300.850 347.409,300.400 347.765,300.400 347.990 C 300.400 348.216,300.130 348.400,299.800 348.400 C 299.470 348.400,299.200 348.548,299.200 348.729 C 299.200 348.910,298.393 349.461,297.406 349.954 C 296.419 350.447,295.434 351.154,295.218 351.525 C 295.001 351.896,294.816 352.020,294.806 351.800 C 294.794 351.533,294.690 351.533,294.494 351.800 C 294.214 352.181,292.339 353.249,289.136 354.851 C 288.331 355.254,287.611 355.724,287.536 355.896 C 287.392 356.226,282.166 358.882,280.300 359.573 C 279.695 359.797,279.200 360.140,279.200 360.336 C 279.200 360.531,278.345 361.003,277.300 361.383 C 273.282 362.847,270.000 364.404,270.000 364.846 C 270.000 365.041,269.747 365.200,269.438 365.200 C 268.443 365.200,263.078 367.150,262.790 367.617 C 262.636 367.865,262.351 368.075,262.155 368.082 C 261.960 368.090,261.440 368.232,261.000 368.398 C 260.560 368.564,259.435 368.828,258.500 368.985 C 257.565 369.142,256.800 369.405,256.800 369.570 C 256.800 369.734,255.315 370.197,253.500 370.597 C 251.685 370.998,250.020 371.535,249.800 371.791 C 249.400 372.257,245.929 373.140,243.100 373.496 C 242.275 373.599,241.600 373.818,241.600 373.981 C 241.600 374.144,239.305 374.591,236.500 374.975 C 233.597 375.372,231.224 375.895,230.991 376.188 C 230.576 376.712,218.038 378.171,217.612 377.745 C 216.645 376.779,217.817 316.000,218.802 316.000 C 218.958 316.000,219.214 313.979,219.370 311.508 C 219.527 309.038,219.800 306.833,219.977 306.608 C 220.154 306.384,220.426 304.689,220.582 302.843 C 220.738 300.996,221.021 299.196,221.212 298.843 C 221.403 298.489,221.852 296.040,222.209 293.400 C 222.567 290.760,223.026 288.429,223.230 288.220 C 223.433 288.011,223.600 287.437,223.600 286.944 C 223.600 286.451,223.754 285.952,223.941 285.836 C 224.129 285.720,224.514 284.270,224.798 282.613 C 225.081 280.956,225.459 279.600,225.637 279.600 C 225.815 279.600,226.276 278.133,226.661 276.340 C 227.047 274.547,227.665 272.792,228.036 272.440 C 228.406 272.088,229.033 270.765,229.428 269.500 C 229.823 268.235,230.264 267.200,230.409 267.200 C 230.554 267.200,230.918 266.435,231.219 265.500 C 231.520 264.565,232.061 263.530,232.420 263.200 C 232.780 262.870,233.280 262.211,233.532 261.736 C 233.834 261.166,234.539 260.779,235.603 260.600 C 236.490 260.450,237.447 260.096,237.729 259.814 C 238.011 259.532,239.762 258.977,241.621 258.580 C 243.479 258.184,245.090 257.747,245.200 257.610 C 245.310 257.473,246.210 257.137,247.200 256.862 C 248.963 256.373,249.778 256.066,252.200 254.976 C 252.860 254.679,254.390 254.129,255.600 253.754 C 256.810 253.379,258.250 252.774,258.800 252.411 C 259.350 252.047,260.565 251.507,261.500 251.211 C 262.435 250.914,263.200 250.558,263.200 250.419 C 263.200 250.280,264.197 249.827,265.416 249.412 C 266.903 248.907,267.565 248.485,267.428 248.130 C 267.306 247.812,267.511 247.600,267.939 247.600 C 268.788 247.600,274.826 244.600,275.400 243.893 C 275.620 243.622,276.790 242.906,278.000 242.302 C 280.805 240.902,281.722 240.323,282.120 239.700 C 282.296 239.425,282.701 239.200,283.020 239.200 C 283.339 239.200,283.600 239.041,283.600 238.846 C 283.600 238.651,284.185 238.212,284.900 237.871 C 285.615 237.529,286.465 236.879,286.788 236.425 C 287.112 235.971,287.532 235.600,287.721 235.600 C 288.201 235.600,291.346 233.045,294.200 230.335 C 295.520 229.082,297.314 227.493,298.187 226.803 C 300.982 224.595,308.217 216.910,312.913 211.162 C 315.256 208.293,318.800 203.480,318.800 203.165 C 318.800 202.984,319.205 202.423,319.700 201.918 C 320.195 201.413,320.929 200.370,321.331 199.600 C 321.733 198.830,322.440 197.480,322.903 196.600 C 323.365 195.720,324.035 194.730,324.392 194.400 C 325.002 193.836,326.400 191.198,326.400 190.611 C 326.400 190.464,326.670 190.073,327.000 189.743 C 327.330 189.413,327.600 188.796,327.600 188.371 C 327.600 187.947,327.777 187.600,327.992 187.600 C 328.208 187.600,328.498 187.150,328.636 186.600 C 328.774 186.050,329.026 185.600,329.197 185.600 C 329.368 185.600,329.817 184.655,330.194 183.500 C 330.572 182.345,331.007 181.310,331.162 181.200 C 331.572 180.910,333.200 177.302,333.200 176.684 C 333.200 176.396,333.365 175.989,333.566 175.780 C 333.767 175.571,334.308 174.242,334.768 172.826 C 335.229 171.410,335.848 169.880,336.145 169.426 C 336.442 168.972,337.024 167.250,337.439 165.600 C 337.854 163.950,338.313 162.510,338.458 162.400 C 338.603 162.290,338.943 161.071,339.215 159.690 C 339.486 158.310,339.864 157.084,340.054 156.967 C 340.244 156.849,340.400 156.313,340.400 155.776 C 340.400 155.239,340.547 154.800,340.728 154.800 C 341.040 154.800,342.400 147.382,342.400 145.679 C 342.400 145.232,342.566 144.807,342.769 144.733 C 343.286 144.547,343.435 140.075,342.942 139.582 C 341.799 138.439,303.771 138.686,302.613 139.844 C 302.307 140.150,301.496 140.400,300.809 140.400 C 298.617 140.400,288.611 141.659,288.402 141.962 C 288.291 142.122,286.310 142.557,284.000 142.929 C 281.690 143.301,279.620 143.842,279.400 144.131 C 279.180 144.421,277.971 144.862,276.713 145.113 C 275.456 145.363,273.611 145.940,272.613 146.394 C 271.616 146.848,270.260 147.328,269.600 147.460 C 268.940 147.592,268.400 147.858,268.400 148.050 C 268.400 148.243,268.172 148.400,267.894 148.400 C 267.616 148.400,266.716 148.760,265.896 149.200 C 265.075 149.640,264.177 150.001,263.901 150.001 C 263.626 150.002,262.780 150.407,262.022 150.901 C 259.939 152.259,257.176 153.853,255.500 154.663 C 254.675 155.062,254.000 155.583,254.000 155.820 C 254.000 156.058,253.382 156.546,252.627 156.906 C 251.872 157.266,250.857 157.885,250.370 158.280 C 247.475 160.636,245.325 162.639,244.806 163.463 C 244.479 163.981,243.939 164.494,243.606 164.600 C 242.968 164.805,242.256 165.493,238.631 169.400 C 237.406 170.720,236.403 171.982,236.402 172.204 C 236.401 172.426,236.040 172.832,235.600 173.107 C 235.160 173.382,234.800 173.875,234.800 174.203 C 234.800 174.532,234.611 174.800,234.380 174.800 C 234.148 174.800,233.703 175.414,233.390 176.163 C 233.076 176.913,232.613 177.596,232.361 177.680 C 231.875 177.842,230.605 179.827,229.103 182.771 C 228.607 183.745,227.808 184.939,227.328 185.425 C 226.848 185.911,226.256 187.049,226.012 187.954 C 225.769 188.859,225.436 189.600,225.272 189.600 C 224.937 189.600,223.860 192.016,223.962 192.541 C 223.998 192.729,223.684 193.180,223.265 193.544 C 222.845 193.907,222.176 195.239,221.778 196.503 C 221.380 197.766,220.907 198.800,220.727 198.800 C 220.547 198.800,220.400 199.083,220.400 199.429 C 220.400 199.774,220.146 200.311,219.836 200.621 C 219.527 200.931,219.151 201.908,219.001 202.792 C 218.852 203.676,218.583 204.400,218.405 204.400 C 218.226 204.400,217.900 205.075,217.681 205.900 L 217.283 207.400 217.241 205.724 C 217.219 204.802,217.020 203.936,216.800 203.800 C 216.580 203.664,216.400 202.494,216.400 201.200 C 216.400 199.906,216.247 198.753,216.061 198.638 C 215.874 198.522,215.492 196.217,215.211 193.514 C 214.930 190.811,214.571 188.510,214.414 188.400 C 214.256 188.290,213.816 186.153,213.436 183.650 C 213.056 181.148,212.598 178.808,212.419 178.450 C 211.499 176.613,211.152 175.547,210.593 172.830 C 210.257 171.196,209.829 169.666,209.643 169.430 C 209.457 169.193,209.083 168.054,208.812 166.899 C 208.541 165.743,208.158 164.697,207.960 164.575 C 207.762 164.453,207.600 164.003,207.600 163.576 C 207.600 163.149,207.439 162.800,207.243 162.800 C 207.047 162.800,206.577 161.540,206.200 160.000 C 205.823 158.460,205.388 157.200,205.234 157.200 C 204.950 157.200,203.894 154.941,203.411 153.300 C 203.265 152.805,202.978 152.400,202.773 152.400 C 202.568 152.400,202.400 152.145,202.400 151.833 C 202.400 151.040,201.004 147.869,200.346 147.167 C 200.046 146.846,199.024 145.036,198.075 143.143 C 197.126 141.250,196.091 139.364,195.775 138.951 C 194.580 137.391,193.200 135.150,193.200 134.769 C 193.200 134.551,192.705 133.876,192.100 133.268 C 191.495 132.661,190.654 131.542,190.231 130.782 C 189.808 130.022,189.223 129.256,188.931 129.080 C 188.639 128.904,188.400 128.512,188.400 128.209 C 188.400 127.906,187.994 127.330,187.498 126.929 C 187.002 126.528,186.258 125.660,185.845 125.000 C 185.431 124.340,184.622 123.323,184.047 122.739 C 183.471 122.156,182.550 121.099,182.000 120.390 C 180.652 118.654,180.003 118.000,179.631 118.000 C 179.460 118.000,178.530 117.010,177.564 115.800 C 176.599 114.590,175.586 113.600,175.313 113.600 C 175.041 113.600,174.504 113.105,174.119 112.500 C 173.734 111.895,173.219 111.273,172.975 111.117 C 172.026 110.511,169.200 107.580,169.200 107.200 C 169.200 106.980,168.930 106.800,168.601 106.800 C 168.271 106.800,167.236 106.078,166.301 105.196 C 165.365 104.315,164.366 103.682,164.079 103.792 C 163.793 103.901,163.644 103.852,163.750 103.682 C 163.855 103.512,163.493 103.019,162.945 102.586 C 162.397 102.154,161.601 101.485,161.175 101.100 C 160.749 100.715,160.297 100.400,160.171 100.400 C 160.046 100.400,159.706 100.175,159.416 99.900 C 158.271 98.813,157.186 98.013,156.083 97.443 C 155.447 97.114,154.494 96.388,153.964 95.830 C 153.434 95.271,152.694 94.811,152.320 94.807 C 151.946 94.803,151.496 94.560,151.320 94.268 C 150.955 93.661,148.544 92.400,147.748 92.400 C 147.457 92.400,146.942 91.978,146.604 91.462 C 146.265 90.946,145.273 90.309,144.399 90.047 C 143.525 89.785,142.324 89.121,141.731 88.571 C 141.138 88.021,140.415 87.662,140.126 87.773 C 139.837 87.884,139.600 87.834,139.600 87.661 C 139.600 87.235,136.644 85.600,135.874 85.600 C 135.535 85.600,135.019 85.368,134.729 85.085 C 134.073 84.445,131.765 83.353,130.300 82.987 C 129.695 82.837,129.200 82.567,129.200 82.388 C 129.200 82.210,128.615 81.937,127.900 81.782 C 126.491 81.477,123.124 80.016,122.800 79.569 C 122.690 79.417,121.437 78.996,120.015 78.633 C 118.594 78.270,117.334 77.825,117.215 77.645 C 117.097 77.464,116.010 77.086,114.800 76.805 C 113.590 76.524,112.420 76.188,112.200 76.058 C 111.980 75.929,111.533 75.782,111.207 75.733 C 110.881 75.684,110.557 75.471,110.487 75.260 C 110.416 75.049,108.658 74.557,106.579 74.165 C 104.501 73.774,102.800 73.319,102.800 73.155 C 102.800 72.992,101.810 72.734,100.600 72.583 C 99.390 72.432,98.400 72.145,98.400 71.946 C 98.400 71.747,97.970 71.693,97.444 71.825 C 96.918 71.957,96.367 71.870,96.220 71.632 C 96.073 71.395,95.438 71.200,94.810 71.200 C 94.181 71.200,93.607 71.037,93.533 70.837 C 93.380 70.420,84.485 69.200,81.601 69.200 L 79.675 69.200 79.400 71.300 C 79.249 72.455,78.886 73.895,78.593 74.501 C 78.300 75.106,77.758 77.446,77.388 79.701 C 77.018 81.955,76.531 84.250,76.304 84.800 C 76.078 85.350,75.746 86.160,75.566 86.600 C 75.180 87.547,74.000 96.800,74.000 98.884 C 74.000 99.681,73.844 100.393,73.653 100.467 C 73.229 100.630,72.393 111.553,72.397 116.876 C 72.399 119.032,72.222 120.862,72.000 121.000 C 71.771 121.142,71.600 123.204,71.600 125.824 C 71.600 128.608,71.757 130.400,72.000 130.400 C 72.230 130.400,72.400 131.633,72.399 133.300 C 72.397 137.484,73.236 146.934,73.649 147.380 C 73.842 147.589,74.000 148.194,74.000 148.726 C 74.000 150.197,75.321 158.173,75.602 158.400 C 75.942 158.675,77.086 162.647,77.388 164.600 C 77.756 166.989,80.143 173.796,80.824 174.400 C 80.948 174.510,81.368 175.797,81.758 177.261 C 82.149 178.724,82.802 180.280,83.210 180.718 C 83.618 181.156,83.869 181.597,83.769 181.698 C 83.668 181.799,83.858 182.403,84.190 183.040 C 84.523 183.678,84.796 184.425,84.798 184.700 C 84.799 184.975,84.940 185.200,85.112 185.200 C 85.284 185.200,85.779 186.120,86.212 187.245 C 86.645 188.369,87.295 189.497,87.656 189.752 C 88.017 190.006,88.540 190.976,88.819 191.907 C 89.098 192.838,89.487 193.600,89.684 193.600 C 89.880 193.600,90.312 194.249,90.643 195.042 C 90.975 195.836,91.686 196.959,92.223 197.538 C 92.760 198.117,93.483 199.133,93.829 199.796 C 94.817 201.687,95.348 202.538,96.076 203.400 C 97.209 204.743,100.175 208.470,100.600 209.085 C 101.284 210.076,104.138 213.327,105.500 214.667 C 106.215 215.371,106.800 216.132,106.800 216.359 C 106.800 216.586,107.205 216.986,107.700 217.247 C 108.195 217.508,109.140 218.346,109.800 219.109 C 110.460 219.871,111.336 220.789,111.746 221.148 C 112.156 221.506,113.445 222.700,114.611 223.800 C 120.093 228.971,123.245 231.586,124.005 231.594 C 124.338 231.597,124.788 231.990,125.005 232.467 C 125.222 232.944,125.752 233.529,126.183 233.767 C 126.614 234.005,127.212 234.425,127.512 234.700 C 127.812 234.975,128.274 235.200,128.540 235.200 C 128.805 235.200,129.309 235.535,129.660 235.944 C 130.210 236.587,131.589 237.594,135.760 240.400 C 138.623 242.325,139.465 242.797,140.044 242.799 C 140.398 242.799,141.021 243.244,141.429 243.787 C 141.837 244.330,142.657 244.881,143.252 245.011 C 143.847 245.142,144.737 245.599,145.230 246.026 C 145.723 246.453,146.773 246.978,147.563 247.191 C 148.353 247.405,149.222 247.936,149.492 248.372 C 149.763 248.808,150.708 249.360,151.592 249.598 C 152.477 249.836,153.200 250.175,153.200 250.351 C 153.200 250.528,153.965 250.921,154.900 251.226 C 155.835 251.530,156.920 252.072,157.311 252.430 C 157.702 252.787,158.769 253.304,159.682 253.577 C 160.595 253.851,162.652 254.688,164.252 255.437 C 165.853 256.187,167.428 256.800,167.753 256.800 C 168.077 256.800,168.581 257.035,168.871 257.323 C 169.162 257.610,170.570 258.168,172.000 258.564 C 173.430 258.959,174.897 259.545,175.260 259.867 C 176.020 260.540,179.682 261.588,181.300 261.595 C 181.905 261.598,182.400 261.752,182.400 261.937 C 182.400 262.123,184.515 262.498,187.100 262.772 C 193.895 263.491,194.072 263.539,193.757 264.552 C 193.611 265.018,193.353 265.490,193.183 265.601 C 193.013 265.711,192.743 266.521,192.585 267.401 C 192.426 268.280,192.136 269.202,191.941 269.449 C 191.746 269.696,191.699 270.191,191.836 270.549 C 191.974 270.909,191.887 271.200,191.643 271.200 C 191.399 271.200,191.200 271.614,191.200 272.120 C 191.200 272.626,191.038 273.211,190.840 273.420 C 190.404 273.879,189.200 279.624,189.200 281.243 C 189.200 281.879,189.020 282.400,188.800 282.400 C 188.580 282.400,188.400 282.925,188.400 283.567 C 188.400 284.208,188.240 284.793,188.043 284.867 C 187.847 284.940,187.404 286.890,187.058 289.200 C 186.712 291.510,186.159 295.020,185.829 297.000 C 185.498 298.980,185.007 303.210,184.738 306.400 C 184.427 310.078,184.062 312.346,183.740 312.600 C 183.404 312.865,183.145 314.755,182.971 318.200 C 182.826 321.060,182.593 323.997,182.451 324.728 L 182.194 326.055 179.997 323.473 C 178.789 322.053,177.289 320.581,176.664 320.201 C 176.039 319.822,175.064 318.992,174.498 318.356 C 173.931 317.720,173.267 317.200,173.022 317.200 C 172.777 317.200,172.317 316.840,172.000 316.400 C 171.683 315.960,171.215 315.600,170.961 315.600 C 170.706 315.600,170.261 315.315,169.971 314.966 C 169.682 314.617,168.625 313.948,167.622 313.480 C 166.620 313.012,165.451 312.307,165.025 311.914 C 164.598 311.521,164.095 311.200,163.906 311.200 C 163.717 311.200,162.217 310.570,160.573 309.800 C 158.928 309.030,157.341 308.400,157.045 308.400 C 156.750 308.400,156.074 308.058,155.543 307.641 C 155.012 307.224,153.323 306.585,151.789 306.222 C 150.255 305.860,148.693 305.395,148.317 305.189 C 147.942 304.983,146.903 304.698,146.009 304.555 C 145.114 304.412,144.289 304.144,144.176 303.961 C 144.062 303.777,143.436 303.733,142.784 303.863 C 142.033 304.013,141.600 303.935,141.600 303.650 C 141.600 303.385,140.875 303.200,139.833 303.200 C 138.862 303.200,138.007 303.029,137.933 302.819 C 137.551 301.730,113.788 301.652,112.703 302.737 C 112.448 302.992,111.736 303.200,111.120 303.200 C 110.504 303.200,110.000 303.392,110.000 303.627 C 110.000 303.866,109.662 303.947,109.234 303.811 C 108.812 303.677,108.361 303.739,108.232 303.949 C 108.102 304.159,107.277 304.452,106.398 304.600 C 105.519 304.749,104.800 304.997,104.800 305.152 C 104.800 305.307,103.825 305.766,102.633 306.171 C 101.251 306.641,100.394 307.178,100.270 307.654 C 100.158 308.082,99.718 308.400,99.237 308.400 C 98.667 308.400,98.400 308.655,98.400 309.200 C 98.400 309.640,98.580 310.000,98.800 310.000 C 99.020 310.000,99.200 310.461,99.200 311.024 C 99.200 311.691,99.359 311.949,99.658 311.764 C 99.981 311.565,100.038 311.795,99.851 312.540 C 99.704 313.123,99.748 313.600,99.948 313.600 C 100.148 313.600,100.429 314.230,100.574 315.000 C 100.718 315.770,100.963 316.400,101.118 316.400 C 101.273 316.400,101.745 317.480,102.167 318.800 C 102.589 320.120,103.084 321.200,103.267 321.200 C 103.450 321.200,103.600 321.470,103.600 321.800 C 103.600 322.130,103.756 322.400,103.946 322.400 C 104.136 322.400,104.601 323.210,104.979 324.200 C 105.357 325.190,105.798 326.000,105.958 326.000 C 106.119 326.000,106.505 326.648,106.816 327.441 C 107.127 328.233,107.668 329.088,108.018 329.341 C 108.367 329.593,109.002 330.427,109.427 331.193 C 109.852 331.959,110.380 332.795,110.600 333.051 C 110.820 333.307,111.720 334.377,112.600 335.430 C 115.332 338.697,119.740 343.200,120.205 343.200 C 120.450 343.200,121.056 343.750,121.552 344.421 C 122.049 345.093,122.903 345.847,123.451 346.096 C 123.999 346.346,125.055 347.123,125.798 347.824 C 126.541 348.524,128.330 349.691,129.774 350.417 C 131.218 351.143,132.400 351.852,132.400 351.994 C 132.400 352.341,135.077 353.600,135.814 353.600 C 136.136 353.600,136.400 353.752,136.400 353.937 C 136.400 354.122,137.525 354.608,138.900 355.017 C 140.275 355.426,141.534 355.976,141.697 356.239 C 141.860 356.503,143.390 357.016,145.097 357.380 C 146.804 357.744,148.560 358.204,149.000 358.401 C 150.018 358.859,155.059 359.600,157.153 359.600 C 158.033 359.600,158.864 359.780,159.000 360.000 C 159.153 360.248,162.730 360.400,168.400 360.400 C 174.070 360.400,177.647 360.248,177.800 360.000 C 177.936 359.780,178.915 359.600,179.976 359.600 L 181.905 359.600 182.085 368.700 C 182.184 373.705,182.250 377.820,182.232 377.845 C 181.994 378.174,169.738 376.605,169.419 376.205 C 169.177 375.902,166.881 375.386,164.000 374.987 C 161.250 374.607,158.910 374.179,158.800 374.038 C 158.690 373.897,156.890 373.443,154.800 373.029 C 152.710 372.615,150.820 372.052,150.600 371.777 C 150.380 371.502,148.715 370.964,146.900 370.581 C 145.085 370.198,143.600 369.759,143.600 369.606 C 143.600 369.453,142.565 369.099,141.300 368.819 C 140.035 368.540,138.775 368.129,138.500 367.906 C 138.225 367.684,137.997 367.659,137.994 367.851 C 137.991 368.043,137.840 367.967,137.659 367.682 C 137.332 367.166,132.027 365.200,130.962 365.200 C 130.653 365.200,130.400 365.041,130.400 364.846 C 130.400 364.651,129.815 364.220,129.100 363.888 C 126.219 362.551,124.127 361.677,122.735 361.231 C 121.930 360.973,121.187 360.544,121.085 360.278 C 120.983 360.011,119.977 359.462,118.850 359.057 C 117.722 358.651,116.800 358.158,116.800 357.960 C 116.800 357.762,116.621 357.600,116.403 357.600 C 115.750 357.600,112.800 356.234,112.800 355.931 C 112.800 355.692,110.130 354.200,106.903 352.635 C 106.410 352.396,106.005 352.054,106.003 351.876 C 106.001 351.698,105.839 351.652,105.642 351.774 C 105.445 351.896,105.188 351.746,105.071 351.440 C 104.954 351.135,104.035 350.474,103.029 349.972 C 102.023 349.469,101.200 348.943,101.200 348.803 C 101.200 348.662,100.480 348.143,99.600 347.648 C 98.720 347.153,98.000 346.598,98.000 346.414 C 98.000 346.230,97.199 345.748,96.220 345.343 C 95.241 344.938,94.255 344.201,94.029 343.704 C 93.802 343.207,93.342 342.800,93.005 342.800 C 92.668 342.800,92.084 342.440,91.707 342.000 C 91.330 341.560,90.844 341.200,90.625 341.200 C 90.407 341.200,89.862 340.841,89.414 340.402 C 87.983 339.000,86.098 337.600,85.642 337.600 C 85.399 337.600,85.200 337.409,85.200 337.176 C 85.200 336.943,84.992 336.881,84.738 337.038 C 84.474 337.202,84.384 337.149,84.529 336.915 C 84.668 336.690,84.055 335.897,83.168 335.153 C 82.280 334.409,80.408 332.720,79.007 331.400 C 75.688 328.272,75.875 328.458,74.119 326.545 C 73.284 325.635,72.195 324.684,71.700 324.431 C 71.205 324.179,70.800 323.773,70.800 323.530 C 70.800 323.003,67.355 319.579,67.091 319.843 C 66.990 319.943,66.680 319.476,66.401 318.803 C 66.123 318.131,65.683 317.450,65.423 317.291 C 65.164 317.131,63.921 315.740,62.661 314.200 C 61.402 312.660,60.018 311.034,59.586 310.586 C 59.154 310.138,58.800 309.593,58.800 309.375 C 58.800 309.156,58.440 308.670,58.000 308.293 C 57.560 307.916,57.200 307.332,57.200 306.995 C 57.200 306.658,56.793 306.198,56.296 305.971 C 55.799 305.745,55.062 304.759,54.657 303.780 C 54.252 302.801,53.770 302.000,53.586 302.000 C 53.402 302.000,52.847 301.280,52.352 300.400 C 51.857 299.520,51.338 298.800,51.197 298.800 C 51.057 298.800,50.559 298.034,50.092 297.098 C 49.624 296.161,48.917 295.036,48.521 294.597 C 47.839 293.842,46.801 292.038,45.149 288.736 C 44.746 287.931,44.278 287.211,44.108 287.136 C 43.630 286.925,42.400 284.551,42.400 283.838 C 42.400 283.487,42.238 283.200,42.040 283.200 C 41.842 283.200,41.349 282.278,40.943 281.150 C 40.538 280.023,39.989 279.017,39.722 278.915 C 39.456 278.813,39.028 278.070,38.770 277.265 C 38.512 276.459,37.873 274.850,37.350 273.688 C 36.828 272.527,36.400 271.402,36.400 271.188 C 36.400 270.975,36.220 270.800,36.000 270.800 C 35.780 270.800,35.600 270.530,35.600 270.200 C 35.600 269.870,35.454 269.600,35.276 269.600 C 35.097 269.600,34.716 268.655,34.429 267.500 C 34.142 266.345,33.402 264.320,32.783 263.000 C 32.165 261.680,31.436 259.700,31.164 258.600 C 30.893 257.500,30.541 256.510,30.382 256.400 C 30.224 256.290,29.783 254.760,29.403 253.000 C 29.023 251.240,28.490 249.620,28.218 249.400 C 27.946 249.180,27.385 247.290,26.971 245.200 C 26.557 243.110,26.103 241.310,25.962 241.200 C 25.821 241.090,25.393 238.750,25.013 236.000 C 24.618 233.152,24.097 230.821,23.800 230.585 C 23.260 230.155,22.000 218.749,22.000 214.295 C 22.000 213.032,21.820 212.000,21.600 212.000 C 21.342 212.000,21.200 207.667,21.200 199.800 C 21.200 191.933,21.342 187.600,21.600 187.600 C 21.824 187.600,22.000 186.502,22.000 185.106 C 22.000 180.672,23.259 169.448,23.805 169.009 C 24.086 168.784,24.620 166.440,24.992 163.800 C 25.364 161.160,25.812 158.820,25.987 158.600 C 26.162 158.380,26.394 157.570,26.503 156.800 C 26.920 153.841,27.762 150.583,28.209 150.200 C 28.465 149.980,29.002 148.315,29.403 146.500 C 29.803 144.685,30.266 143.200,30.430 143.200 C 30.595 143.200,30.857 142.435,31.012 141.500 C 31.168 140.565,31.878 138.540,32.591 137.000 C 33.304 135.460,34.128 133.300,34.423 132.200 C 34.717 131.100,35.283 129.851,35.679 129.425 C 36.076 128.998,36.400 128.501,36.400 128.320 C 36.400 128.139,36.743 127.228,37.162 126.296 C 37.581 125.363,38.235 123.745,38.616 122.700 C 38.997 121.655,39.469 120.800,39.664 120.800 C 39.860 120.800,40.194 120.341,40.408 119.780 C 41.164 117.789,43.782 112.598,44.097 112.464 C 44.272 112.389,44.746 111.669,45.149 110.864 C 46.801 107.562,47.839 105.758,48.521 105.003 C 48.917 104.564,49.624 103.439,50.092 102.502 C 50.559 101.566,51.090 100.800,51.271 100.800 C 51.452 100.800,51.600 100.530,51.600 100.200 C 51.600 99.870,51.784 99.600,52.010 99.600 C 52.235 99.600,52.591 99.150,52.800 98.600 C 53.009 98.050,53.338 97.600,53.530 97.600 C 53.722 97.600,54.207 96.805,54.608 95.833 C 55.020 94.835,55.742 93.881,56.268 93.642 C 56.781 93.408,57.200 92.919,57.200 92.554 C 57.200 92.190,57.605 91.470,58.100 90.956 C 59.685 89.307,62.400 85.828,62.400 85.446 C 62.400 85.332,63.278 84.360,64.352 83.286 C 65.425 82.213,66.427 80.944,66.579 80.467 C 66.730 79.990,67.021 79.600,67.225 79.600 C 67.429 79.600,68.361 78.804,69.298 77.832 C 70.234 76.859,71.211 75.854,71.468 75.599 C 72.370 74.705,75.540 71.531,75.994 71.068 C 76.245 70.811,77.596 69.520,78.996 68.200 C 81.536 65.804,82.828 64.685,86.600 61.616 C 87.700 60.721,88.966 59.631,89.414 59.194 C 89.862 58.757,90.407 58.400,90.625 58.400 C 90.844 58.400,91.330 58.040,91.707 57.600 C 92.084 57.160,92.668 56.800,93.005 56.800 C 93.342 56.800,93.802 56.393,94.029 55.896 C 94.255 55.399,95.241 54.662,96.220 54.257 C 97.199 53.852,98.000 53.373,98.000 53.193 C 98.000 53.013,98.675 52.455,99.500 51.954 C 100.325 51.452,101.090 50.917,101.200 50.765 C 101.310 50.612,102.167 50.089,103.104 49.601 C 104.041 49.114,104.941 48.497,105.104 48.230 C 105.267 47.963,106.300 47.294,107.400 46.742 C 110.053 45.412,112.552 43.973,112.800 43.633 C 113.073 43.258,115.816 42.000,116.360 42.000 C 116.602 42.000,116.800 41.834,116.800 41.631 C 116.800 41.428,117.430 41.054,118.200 40.800 C 118.970 40.546,119.600 40.172,119.600 39.969 C 119.600 39.766,119.960 39.600,120.400 39.600 C 120.840 39.600,121.200 39.434,121.200 39.231 C 121.200 39.028,121.875 38.645,122.700 38.380 C 123.525 38.115,125.674 37.201,127.476 36.349 C 129.278 35.497,131.033 34.800,131.376 34.800 C 131.719 34.800,132.000 34.654,132.000 34.476 C 132.000 34.297,133.089 33.825,134.421 33.426 C 135.752 33.027,137.083 32.460,137.377 32.166 C 137.671 31.872,139.147 31.325,140.656 30.950 C 142.165 30.575,143.490 30.139,143.600 29.981 C 143.710 29.823,145.202 29.383,146.915 29.004 C 148.628 28.624,150.253 28.090,150.526 27.816 C 150.800 27.543,152.728 26.982,154.812 26.569 C 156.895 26.156,158.690 25.700,158.800 25.556 C 158.910 25.411,160.671 25.066,162.713 24.788 C 164.754 24.510,166.520 24.129,166.636 23.941 C 166.752 23.754,167.452 23.600,168.190 23.600 C 168.929 23.600,169.593 23.436,169.667 23.236 C 169.947 22.471,196.051 20.680,201.400 21.060 C 202.280 21.122,206.240 21.270,210.200 21.389 " stroke="none" fill="#1c941c" fill-rule="evenodd"></path><path id="path1" d="" stroke="none" fill="#20941c" fill-rule="evenodd"></path><path id="path2" d="" stroke="none" fill="#20941c" fill-rule="evenodd"></path><path id="path3" d="" stroke="none" fill="#20941c" fill-rule="evenodd"></path><path id="path4" d="" stroke="none" fill="#20941c" fill-rule="evenodd"></path></g></svg>